#N canvas 613 14 635 671 12;
#X obj 28 564 dac~;
#X obj 13 5 netreceive -u -b 2666;
#X obj 13 34 oscparse;
#X obj 2 348 pd/voice 100;
#X obj 11 65 print osc;
#X obj 149 65 unpack s s f;
#X obj 188 132 route 0 1 2 3 4 5 6 7 8 9;
#X obj 28 375 pd/voice 222;
#X obj 42 405 pd/voice 1020;
#X obj 81 438 pd/voice 2221;
#X obj 276 239 pd/voice 1020;
#X obj 238 182 pd/voice 103;
#X obj 258 212 pd/voice 211;
#X obj 302 273 pd/voice 2121;
#X obj 209 100 mod 10;
#X obj 358 308 pd/voice 3131.2;
#X obj 437 379 pd/voice 5142.1;
#X connect 1 0 2 0;
#X connect 2 0 4 0;
#X connect 2 0 5 0;
#X connect 3 0 0 0;
#X connect 3 1 0 1;
#X connect 5 2 14 0;
#X connect 6 0 3 1;
#X connect 6 1 7 1;
#X connect 6 2 8 1;
#X connect 6 3 9 1;
#X connect 6 4 11 1;
#X connect 6 5 12 1;
#X connect 6 6 10 1;
#X connect 6 7 13 1;
#X connect 6 8 15 1;
#X connect 6 9 16 1;
#X connect 7 0 0 0;
#X connect 7 1 0 1;
#X connect 8 0 0 0;
#X connect 8 1 0 1;
#X connect 9 0 0 0;
#X connect 9 1 0 1;
#X connect 11 0 0 0;
#X connect 11 1 0 1;
#X connect 12 0 0 0;
#X connect 12 1 0 1;
#X connect 13 0 0 0;
#X connect 14 0 6 0;
#X connect 15 0 0 0;
#X connect 15 1 0 1;
#X connect 16 0 0 0;
#X connect 16 1 0 1;
