#N canvas 213 178 450 300 12;
#X obj 78 246 + 20;
#X obj 78 220 * 2000;
#X obj 84 58 / 128;
#X obj 83 111 *;
#X obj 122 125 *;
#X obj 138 155 *;
#X obj 83 24 inlet;
#X obj 77 272 outlet;
#X connect 0 0 7 0;
#X connect 1 0 0 0;
#X connect 2 0 3 0;
#X connect 2 0 3 1;
#X connect 2 0 4 1;
#X connect 2 0 5 1;
#X connect 3 0 4 0;
#X connect 4 0 5 0;
#X connect 5 0 1 0;
#X connect 6 0 2 0;
